/vscmnt/brussel_pixiu_data/_data_brussel/112/vsc11236/PredSimResults/SUBJ10opt3D/trackIG/worker_03.mot
version=1
nRows=8
nColumns=50
inDegrees=yes
endheader
                time	         pelvis_tilt	         pelvis_list	     pelvis_rotation	           pelvis_tx	           pelvis_ty	           pelvis_tz	       hip_flexion_r	     hip_adduction_r	      hip_rotation_r	        knee_angle_r	       ankle_angle_r	         mtp_angle_r	       hip_flexion_l	     hip_adduction_l	      hip_rotation_l	        knee_angle_l	       ankle_angle_l	         mtp_angle_l	    lumbar_extension	      lumbar_bending	     lumbar_rotation	 ercspn_r/activation	 intobl_r/activation	 extobl_r/activation	    abd_r/activation	    add_r/activation	hamstrings_r/activation	bifemsh_r/activation	glut_max_r/activation	iliopsoas_r/activation	rect_fem_r/activation	  vasti_r/activation	gastroc_r/activation	 soleus_r/activation	tib_ant_r/activation	 ercspn_l/activation	 intobl_l/activation	 extobl_l/activation	    abd_l/activation	    add_l/activation	hamstrings_l/activation	bifemsh_l/activation	glut_max_l/activation	iliopsoas_l/activation	rect_fem_l/activation	  vasti_l/activation	gastroc_l/activation	 soleus_l/activation	tib_ant_l/activation	
          0.00000000	         -0.97542985	         -2.42934645	          8.65347864	          0.00000000	          0.84061003	         -0.01711813	         24.65612250	          0.02991118	         -5.07367921	         -9.46470655	          1.55685764	          0.24446691	        -13.89955169	         -2.81347305	         -0.97075400	         -6.82086150	         11.14832139	         19.91361959	         -5.25554245	         -0.86722537	         -4.61987653	          0.11356446	          0.17214918	          0.00999999	          0.00999999	          0.14471605	          0.07230714	          0.10647803	          0.01308669	          0.07665911	          0.01000003	          0.00999999	          0.00999999	          0.00999999	          0.22795780	          0.05305471	          0.00999999	          0.00999999	          0.08134442	          0.00999999	          0.00999999	          0.18033408	          0.00999999	          0.23960071	          0.00999999	          0.00999999	          0.24249900	          0.23339182	          0.02181247	
          0.01348507	         -1.03950230	         -2.31555952	          8.49065594	          0.01301890	          0.83919403	         -0.01612507	         24.27860593	          0.19961507	         -4.85198470	        -10.22718081	          1.47411896	          0.23915632	        -14.11408404	         -2.80302898	         -1.63861401	         -8.04832171	         10.87551284	         21.28899241	         -4.98983938	         -0.50631534	         -5.00806140	          0.10356533	          0.17695610	          0.00999999	          0.00999999	          0.16494918	          0.06605116	          0.10366021	          0.01648452	          0.06259158	          0.00999999	          0.00999999	          0.01224750	          0.01100503	          0.24506454	          0.06583212	          0.00999999	          0.00999999	          0.06641710	          0.00999999	          0.01000000	          0.14724140	          0.00999999	          0.19563216	          0.00999999	          0.00999999	          0.22616317	          0.23232443	          0.01780972	
          0.02697014	         -1.09767415	         -2.21645254	          8.27682390	          0.02634235	          0.83797261	         -0.01503910	         23.80724404	          0.37557019	         -4.59331964	        -10.88312791	          1.21953815	          0.23768625	        -14.27810218	         -2.81469524	         -2.32311667	         -9.40706904	         10.46492570	         22.68634109	         -4.69968490	         -0.10155139	         -5.38521165	          0.09131725	          0.16465720	          0.00999999	          0.00999999	          0.14033799	          0.06311948	          0.08463777	          0.02704126	          0.05110555	          0.00999999	          0.01517688	          0.00999999	          0.00999999	          0.28254380	          0.07570067	          0.00999999	          0.00999999	          0.05422906	          0.00999999	          0.00999999	          0.12022148	          0.00999999	          0.15973217	          0.00999999	          0.00999999	          0.20598557	          0.22672610	          0.01454150	
          0.04045521	         -1.15000356	         -2.12922269	          8.00522875	          0.03981914	          0.83706221	         -0.01383112	         23.32352389	          0.55518302	         -4.41512722	        -11.49157605	          0.86200685	          0.23041321	        -14.33042465	         -2.84717843	         -3.02839059	        -10.98371520	          9.89758588	         24.08987760	         -4.40511514	          0.33800774	         -5.74486384	          0.08649505	          0.13444135	          0.00999999	          0.02064059	          0.13556480	          0.06779225	          0.06910610	          0.02207899	          0.04172729	          0.00999999	          0.04164946	          0.00999999	          0.00999999	          0.32308396	          0.08222970	          0.00999999	          0.00999999	          0.04427761	          0.00999999	          0.01000011	          0.09815993	          0.00999999	          0.13042010	          0.00999999	          0.00999999	          0.18007513	          0.21709389	          0.01187302	
          0.05394028	         -1.19634887	         -2.05128478	          7.68228607	          0.05337019	          0.83656872	         -0.01250674	         22.81284805	          0.73297617	         -4.34212108	        -12.06107982	          0.56034408	          0.22045176	        -14.22425764	         -2.90323099	         -3.75801734	        -12.84232565	          9.15106828	         25.46009220	         -4.11347271	          0.80260760	         -6.08223571	          0.08532431	          0.10977034	          0.00999999	          0.04416896	          0.13379752	          0.07015911	          0.05642460	          0.01802732	          0.03407002	          0.00999999	          0.06155908	          0.00999999	          0.00999999	          0.34049062	          0.09729239	          0.00999999	          0.00999999	          0.03615233	          0.00999999	          0.01208772	          0.08014683	          0.01491982	          0.10648702	          0.00999999	          0.00999999	          0.14702997	          0.20265330	          0.00999999	
          0.06742535	         -1.23664390	         -1.97817565	          7.31650297	          0.06691171	          0.83660051	         -0.01108574	         22.25886738	          0.90743130	         -4.34360508	        -12.58892542	          0.46099446	          0.21063522	        -13.92817991	         -2.98379428	         -4.53294555	        -15.01323677	          8.20442608	         26.71059172	         -3.82983815	          1.28119918	         -6.39458692	          0.07939420	          0.08962665	          0.00999999	          0.06359234	          0.10924466	          0.07142966	          0.04607026	          0.01471917	          0.02781791	          0.00999999	          0.07505108	          0.00999999	          0.00999999	          0.33726044	          0.11162908	          0.00999999	          0.00999999	          0.02951810	          0.00999999	          0.03183050	          0.06543928	          0.02089466	          0.08694584	          0.00999999	          0.01168979	          0.12004886	          0.18382803	          0.00999999	
          0.08091042	         -1.27147642	         -1.90459501	          6.91739586	          0.08033883	          0.83722943	         -0.00959146	         21.66773144	          1.08133592	         -4.35548756	        -13.08659612	          0.61718594	          0.21868681	        -13.42394058	         -3.09017619	         -5.36749917	        -17.49792500	          7.06017653	         27.70039228	         -3.56212545	          1.76330187	         -6.68390549	          0.07648345	          0.07317947	          0.00999999	          0.07047802	          0.12492937	          0.07611002	          0.03761602	          0.02355399	          0.02271311	          0.00999999	          0.08089222	          0.00999999	          0.00999999	          0.31036029	          0.11681495	          0.00999999	          0.00999999	          0.02410131	          0.06132459	          0.03806113	          0.05343067	          0.01706033	          0.07099062	          0.00999999	          0.01375945	          0.09801898	          0.16316774	          0.00999999	
          0.09439549	         -1.30169085	         -1.81562209	          6.49045286	          0.09356766	          0.83845380	         -0.00805475	         21.02536340	          1.24579661	         -4.32894708	        -13.51819470	          1.01594074	          0.27638624	        -12.69434531	         -3.21543507	         -6.26319275	        -20.30494357	          5.75229707	         28.25749540	         -3.31852225	          2.23165484	         -6.94865703	          0.07157181	          0.05975048	          0.00999999	          0.06830757	          0.12217761	          0.08260924	          0.03071319	          0.03420588	          0.01854508	          0.00999999	          0.08451283	          0.00999999	          0.00999999	          0.26863612	          0.11861698	          0.00999999	          0.00999999	          0.01967853	          0.12027256	          0.04787602	          0.04362574	          0.01392963	          0.05796330	          0.00999999	          0.01465343	          0.08003175	          0.13376892	          0.00999999	
